<svg xmlns="http://www.w3.org/2000/svg" viewBox="0 0 3244.06 419.43"><defs><style>.cls-1{fill:#fff;}</style></defs><title>Asset 1</title><g id="Layer_2" data-name="Layer 2"><g id="Layer_4" data-name="Layer 4"><path class="cls-1" d="M70.43,5.23c.89,1.2-1.57,4.54-5.48,7.47S57.13,17,56.24,15.83s1.57-4.54,5.48-7.47S69.54,4,70.43,5.23Z"/><path class="cls-1" d="M65.9,5.73A5.71,5.71,0,1,1,60.2,0,5.71,5.71,0,0,1,65.9,5.73Z"/><path class="cls-1" d="M388.85,6.12A5.7,5.7,0,1,0,394.55.4,5.71,5.71,0,0,0,388.85,6.12Z"/><path class="cls-1" d="M34.63,283.46l-.71-.37a1.33,1.33,0,0,1-.64-1.37c.34-4.41.39-15.47-6.45-22.86s-7-18.06-7.27-27.57c0-1.94-.1-3.77-.2-5.53-.43-7.39-1.92-8.39-6.35-11.37-1.34-.9-3-2-4.93-3.53-8.69-6.81-9-38-7.21-52.42,2.44-19.89,6.06-33,10.78-39.14,6-7.78,10.38-16,9.51-18,0-.08-.09-.21-.5-.24-5.59-.43-5.24-5.65-5.07-8.16,0-.43.05-.83.05-1.16,0-2.52,4.84-13.71,5.8-15.93,10.29-23.44,39.94-60,40.24-60.35l1.24-1.53.78,1.81c19.09,44.63,32.74,51.47,43.72,57,1,.51,2,1,3,1.53l1.14.6-.68,1.09c-12,19.2-43.93,42.32-49.5,43.48l-1.1.23.59.44.51.39c2.58,2,6.12,4.64,6.32,12.32.18,6.78-11,21.85-20.85,35.15-1.83,2.48-3.61,4.88-5.24,7.13-8.7,12-6.6,14.27-3.14,18.07.36.39.72.78,1.09,1.2,4.65,5.34,4.64,6.24-.15,24.07-3.64,13.57-2.72,17.42-.87,25.11.52,2.18,1.11,4.65,1.69,7.71,2.43,13-3.61,30.8-5,31.78ZM62.29,18.51c-5.71,7.18-29.7,37.84-38.66,58.27C21.3,82.1,18,90.26,18,91.74c0,.38,0,.83-.06,1.32-.25,3.71.11,5.4,2.87,5.61a2.83,2.83,0,0,1,2.51,1.66c2.12,4.81-8.59,18.86-9.82,20.44-4.38,5.66-7.94,18.79-10.3,38C1.41,173.56,2,203,9.55,209c1.85,1.45,3.41,2.5,4.79,3.43,4.6,3.09,6.91,4.64,7.4,13.22.1,1.8.15,3.65.2,5.61.25,9.08.52,19.38,6.64,26,5.09,5.5,6.7,12.75,7.09,18.31,1.74-6.11,3.69-15.94,2.2-23.86-.56-3-1.15-5.45-1.66-7.6-1.88-7.83-2.91-12.13.89-26.29,4.64-17.29,4.49-17.46.65-21.87l-1-1.16c-4.27-4.67-6.41-8.19,3-21.1,1.64-2.26,3.42-4.66,5.26-7.15,9.15-12.34,20.53-27.71,20.37-33.66-.17-6.52-2.93-8.62-5.37-10.47l-.53-.4c-.47-.36-.9-.65-1.24-.89-.85-.57-1.65-1.12-1.46-2.1s1-1.27,4.18-1.93c4.32-.9,34.79-22.42,47.26-41.3l-1.79-.9C95.18,69.26,81.32,62.32,62.29,18.51Z"/><path class="cls-1" d="M80.88,51.4s5.84,10.25-1.32,53.79c-11.94,9.32-13.79,10.65-13.79,10.65s4.5-22.1,4-41.54-8.35-57-8.35-57l1.21-1.1Z"/><path class="cls-1" d="M49.19,34s11.14,34,8.35,84.69a45.81,45.81,0,0,1,6.77,7.59,11.35,11.35,0,0,0-9.55-3.2c-6,.8-10.74,3.6-11.54-8s5.17-40.34-8.75-59.92C44.42,39.55,49.19,34,49.19,34Z"/><path class="cls-1" d="M23.33,73.9s9.15,8.79,11.14,24.37.8,32.75,13.13,34.35,18.89.2,18.89.2l-7,16.58s-16.71,3.19-23.07-12-2.78-35.15-15.71-37.55c-5.77-2-3.92-8.12-3.92-8.12Z"/><path class="cls-1" d="M19,111.05s7.16,4.79,8.75,24.76,21.48,26.77,21.48,26.77L38.05,178.16s-9.94-9.59-12.33-18.38-1.59-27.56-19.1-26C8.22,126.23,16.17,115,19,111.05Z"/><path class="cls-1" d="M3.84,143.8s9.94,12.79,14.32,22.77,17.9,26.77,17.9,26.77l5.17,5.19.4,6.79s-6-3.6-11.53-7.19S21.74,189.74,18.16,185s-8.35-9.19-17.1-13.58A227.29,227.29,0,0,1,3.84,143.8Z"/><path class="cls-1" d="M1.45,183S11,196.13,14.58,198.13s15.52,5.59,18.7,11.58,5.17,10,5.17,10l-2.79,14.38s-3.58-11.58-9.15-15.18-19.09-8.39-20.68-12S1.45,183,1.45,183Z"/><path class="cls-1" d="M19.75,224.49s6.76,11.19,10.35,16,9.54,14.38,9.54,14.38l-1.19,13.58s-.8-10-5.57-13.18-11.54-6.39-11.54-8S19.75,224.49,19.75,224.49Z"/><path class="cls-1" d="M227.81,313c-58.06,0-105.29-47.43-105.29-105.72s47.23-105.73,105.29-105.73S333.09,149,333.09,207.32,285.86,313,227.81,313Zm0-206.65c-55.43,0-100.52,45.27-100.52,100.93s45.09,100.93,100.52,100.93S328.32,263,328.32,207.32,283.23,106.39,227.81,106.39Z"/><path class="cls-1" d="M228.07,303.4c-52.61,0-95.41-43-95.41-95.82s42.8-95.81,95.41-95.81,95.42,43,95.42,95.81S280.69,303.4,228.07,303.4Zm0-190c-51.73,0-93.82,42.26-93.82,94.21s42.09,94.22,93.82,94.22,93.83-42.27,93.83-94.22S279.81,113.37,228.07,113.37Z"/><path class="cls-1" d="M442.88,299.23l-2.23-.75c.06-.46,6.7-45.75-4.1-64.74-4.4-7.73-10.26-15.25-15.92-22.51-8.69-11.16-16.2-20.8-16.2-28.41a74.57,74.57,0,0,1,2.06-15.66c1-5,1.94-9.31,1.15-12.84a59.71,59.71,0,0,0-1.68-5.95c-1.2-3.71-2.57-7.91-3.9-18.13-2.09-15.91-3.47-23-14.37-23.32-12.84-.42-20.9-3.38-44.22-30l-1.05-1.19,1.43-.68c.21-.1,20.4-9.78,31.22-25.82,17-25.24,17.82-33,17.83-33.1l.29-3.6,1.91,3c5.66,9.07,22.24,32.68,30.86,33h.13C437.85,49,440.16,49.68,443.4,68c.68,3.86,1.44,8.74,2.33,14.4,3.23,20.74,7.67,49.16,13.62,61.87,4.08,8.7.31,21.41-2.88,30.21l-.1.29c-2.52,6.8-7.4,24.17,1.59,38.61C474.39,239.74,444.17,296.81,442.88,299.23ZM346.29,76.54c23.13,26.19,30.18,27.62,41.47,28,13.39.44,14.69,10.37,16.66,25.41,1.31,10,2.64,14.09,3.81,17.7A60.37,60.37,0,0,1,410,153.8c.9,4-.05,8.58-1.15,13.85a73.14,73.14,0,0,0-2,15.17c0,6.79,7.62,16.57,15.69,26.93,5.72,7.34,11.62,14.92,16.11,22.8,8.69,15.27,6.72,45.54,5.26,59.27,7.42-15.71,24.67-56.94,12.05-77.21-9.55-15.34-4.44-33.58-1.8-40.72l.1-.27c1.75-4.84,7.09-19.57,3-28.37-6.1-13-10.56-41.63-13.82-62.52-.88-5.64-1.64-10.52-2.32-14.35-3-16.95-4.37-17-15.05-17.38h-.13c-10-.36-26.27-24.1-31.3-31.79C393.19,23.42,389.1,32.74,377,50.6,367.42,64.87,351.19,74,346.29,76.54Z"/><path class="cls-1" d="M371.46,56.5c2.78,4.46,9.29,9.7,13.25,3.31,3-4.86-1.19-10.91-4.67-14.28-1.66-1.6-4.2.94-2.53,2.54,2.06,2,5,5.38,4.62,8.45-.65,5.88-6.17.42-7.58-1.84-1.22-2-4.32-.15-3.09,1.82Z"/><path class="cls-1" d="M399.81,67.67c-1.7-2.3-4.25-6.36-7.34-6.69-2.85-.3-6.11,1.37-6.88,4.24C384.29,70,388.8,75.74,393.3,77a6,6,0,0,0,6.16-2c1.76-2.2,1.39-4.85.35-7.26-.91-2.12-4-.29-3.09,1.81.74,1.71.34,4.11-1.92,4.11-1.48,0-3.08-1.48-4-2.51-1.4-1.61-3.21-5.14-.4-6.23a4.24,4.24,0,0,1,1.66-.28c.39,0,.39.16.06,0a4.57,4.57,0,0,1,1,.8,29.66,29.66,0,0,1,3.56,4.11C398.08,71.31,401.19,69.52,399.81,67.67Z"/><path class="cls-1" d="M416.38,82.12c-1.58-2.34-3.62-6.09-6.45-7.05a5.64,5.64,0,0,0-7.5,4c-.93,4.55,2.54,10,6.84,11.48,5.18,1.8,8.82-3.34,7.3-8-.72-2.19-4.17-1.25-3.46,1,.54,1.65.38,3.84-1.9,3.83-1.24,0-2.37-1-3.17-1.89-1.3-1.37-3.72-5.62-1.15-6.93,2.72-1.39,5.22,3.68,6.4,5.42C414.58,85.84,417.69,84,416.38,82.12Z"/><path class="cls-1" d="M426.25,102.05c-.62-2.84-1.07-6.78-3-9.08-2.68-3.24-6.59-1.86-8.07,1.68-1.66,4-.32,10.19,2.83,13.17a4.62,4.62,0,0,0,5.24.84c2.27-1.16,2.84-3.81,3-6.13s-3.39-2.3-3.58,0c-.1,1.19-.46,3.75-2.18,2.73-1-.57-1.56-2.51-1.87-3.51-.37-1.19-1.44-7.21,1-7.07,1.32.08,1.7,2.73,1.94,3.59.45,1.56.83,3.15,1.18,4.73C423.29,105.26,426.74,104.31,426.25,102.05Z"/><path class="cls-1" d="M433.47,126.76c-.39-3.47-.53-7.54-1.87-10.79-1.46-3.53-5.14-2.69-6.4.51-1.64,4.15-1.76,11.24.29,15.24.89,1.73,2.5,2.7,4.39,1.8,2.46-1.16,3.33-4.3,3.59-6.76.24-2.3-3.34-2.28-3.58,0-.12,1.14-.94,4.75-1.65,1.93a20.06,20.06,0,0,1-.46-4.58,27.7,27.7,0,0,1,.12-3.53,11.75,11.75,0,0,1,.39-2.1,3.15,3.15,0,0,1,.4-1.07c.33-.41.16-.54-.53-.38.13,1.68.87,3.57,1.14,5.28.22,1.48.42,3,.59,4.45C430.15,129,433.73,129.06,433.47,126.76Z"/><path class="cls-1" d="M379.68,58.56c2.55,3.34,5.68,6.84,9.53,8.64,2.07,1,3.89-2.13,1.81-3.11a19.45,19.45,0,0,1-5.67-4.41c-.67-.69-1.31-1.41-1.92-2.14-.22-.25-.43-.51-.63-.77s-.3-.38,0,0c-1.38-1.81-4.49,0-3.09,1.81Z"/><path class="cls-1" d="M396,74.39c3.54,2.18,7.06,4.41,10.48,6.79,1.89,1.32,3.68-1.79,1.8-3.11-3.41-2.38-6.93-4.61-10.47-6.79-2-1.21-3.77,1.9-1.81,3.11Z"/><path class="cls-1" d="M411.12,87a43.66,43.66,0,0,1,6.48,8.82c1.14,2,4.23.21,3.1-1.81a47.77,47.77,0,0,0-7-9.55c-1.6-1.67-4.13.87-2.54,2.54Z"/><path class="cls-1" d="M421.47,106.33c2.93,3.18,4.37,7.83,5.1,12,.4,2.27,3.86,1.31,3.46-1-.84-4.78-2.68-9.93-6-13.57-1.57-1.71-4.1.84-2.53,2.54Z"/><path class="cls-1" d="M427.57,128.55c-.67,4.48.55,9.34,1.79,13.6.64,2.22,4.1,1.27,3.45-1a41.35,41.35,0,0,1-1.76-8.95c-.05-.76-.05-1.52,0-2.28,0-.23.15-1.38,0-.46.34-2.26-3.11-3.24-3.45-.95Z"/><path class="cls-1" d="M415.87,120s-.88-2.29-2.16-2.19c.34,3.28.38,3.62.59,5.69s.24,5.92,1.08,12.7,3.79,23.73.84,39.8c-1.94,2.39-3.36,3.6-3.26-1.54s1.25-29.79-.14-33.24-4-5.13-5.46-5.25a18.83,18.83,0,0,1,3.54,10.31c.07,1.85-.26,25.78,0,27.85s.53,8.67,3.8,5.38c.53,3.84.68,4.06,2.16,5.86s.23,5.92-.81,8.26,3.24,10.39,3.94,12.12,5.07,5.29,7.56.59c1.53-3.85-3.5-.74-3.78-1s-2.89-.2-6-7.16c2.84-4.93,3.92-10.59,3.3-12.79s-3.47-4.78-3.47-4.78,3.43-2.91,4.32-1.79,1.88,3.1.81,6.43c1.54,1.16,4.78,2.53,5.4,4.73s2.65.68,2.68-1.48a6,6,0,0,0-3.51-5.12c-1.6-.52-1.15-1.21-.68-4.06s-.63-10.88-7.81-3.16c.55-3.33,6.22-21.71,3.54-34.91,1.77-2.77,3.67-7.77,3.85-9.71s-1-8.89-1-8.89S424,136,421.76,139.27c-.84-3.1-2.35-6.42-2.42-7.11s-.45-5.48-.45-5.48,3.21-3.82,3.71-5.16,1.52-5.19.58-4.32-2.65,3-3.34,2.61S418.23,118,415.87,120Z"/><path class="cls-1" d="M436.4,94.16a23.91,23.91,0,0,1,1.29-6.1c.34,3.28.38,3.63.6,5.7s.93,5.13,1.54,12.17,1.48,26.33,6.83,33c2-2,3.32-3.94,2.27-7.78s-5.73-21-6.14-26.49a30.78,30.78,0,0,1,1.82-13.24c-.53,8.39.35,11.76.65,13.36s5.05,19.79,5.27,21.87,1.21,7.89-2,11.88c.3,4.1.23,4.58-.6,9s.93,5.13,2.19,4.87,1,13.34.79,16.1-1.26,11.28-5.63,13.88c-1.93.06,1.25-5.27,1.43-6a46.47,46.47,0,0,0,2.87-16.76c-3.16,1.82-5.07-.46-5-3.44s1.84-10.76,1.84-10.76-3.26,4.64-3.75,7.32-.89,6.22.58,6.69c-1,4-3.29,11.63-3.37,14.61s-2,5.88-2.39,4.24.63-7.47,1.8-11.11.69-3.28-.22-4.57-1.55-9.84,5.56-18.25c-1.07-1.51-9-4.54-9.37-20.34-1.91,1.39-4.06,3-4.57,1.87a27.21,27.21,0,0,1-1-4.48s3.28,1.71,5.65-.2c.08-4.14.65-9.8.58-10.49s-.68-5.23-.68-5.23-3.25,3.47-3.9,3.43-2.17-1-1.27-2.24,2.66-3,3.12-4.68A20.77,20.77,0,0,1,436.4,94.16Z"/><path class="cls-1" d="M425.91,143.77s8.23-4.76,10.21-6.62.4,3.59.4,3.59a46,46,0,0,1,1.63,9.92c.1,14.18-2.29,17.78-6.8,19.64,0,0-6,2.13-6.5-8.79-.43-9,1.46-13.75,1.46-13.75S423.92,144.57,425.91,143.77Z"/><path class="cls-1" d="M422.13,142.87s2.89,1.6,4.78,1.6-.6,2.3-.6,2.3a38.35,38.35,0,0,1-4.37-2.5l-.8-.7,1.09-1.2Z"/><path class="cls-1" d="M435.16,138.18a58.39,58.39,0,0,0,1.89-10.49c.33-5.44,1.89,7.29-.79,12C433.23,145,432.49,145.8,435.16,138.18Z"/><path class="cls-1" d="M724.77,360.91c9.44,9,24.89,14.22,46.78,17.67v7.32c-26.18-.43-52.79-.86-79-.86-26.61,0-52.79.43-79.4.86v-7.32c21.89-3.45,37.77-8.62,47.21-17.67C670.68,351,672,330.31,672,295.82V100.15H642.36c-50.65,0-73.83,12.06-85.42,56l-7.3-1.3L557.8,71.7H563l12.87,13.79c39.92,0,79,.43,118,.43,38.63,0,77.26-.43,115.46-.43L823.49,71.7h3.43l7.3,84-6.87,1.3c-10.3-41.81-33.91-56.89-82-56.89H713.18V295.82C713.18,330.31,714.47,351,724.77,360.91Z"/><path class="cls-1" d="M836.43,378.58c30.9-1.3,32.19-12.07,32.19-45.26l-.43-198.69c0-14.23-1.29-23.71-10.73-32.33L846.3,92.82V88.94l52.79-21.55,4.3,2.15L900.81,214.8c30.05-20.26,54.94-30.18,73.83-30.18,41.2,0,57.51,23.28,58.8,72.85l1.72,81c.86,28.88,1.71,37.07,31.76,40.09v7.32c-15.45-.43-31.76-.43-48.5-.43-16.31,0-33.48,0-51.08.43v-7.32c28.76-3,33-10.78,33-36.64,0-3.88-.43-8.62-.43-13.79l-.86-50c-.86-47.41-15.88-69.82-53.22-69.82-14.17,0-28.33,4.74-44.21,14.22V332.89c0,34.05,4.72,44.39,33.91,45.69v7.32c-17.17-.43-33.91-.43-50.65-.43-16.31,0-32.62,0-48.5.43Z"/><path class="cls-1" d="M1239.31,339.36c-21.89,32.32-50.22,49.13-82.85,49.13-49.79,0-90.13-40.94-90.13-98.27,0-59.48,42.49-105.6,95.28-105.6,42.93,0,70.83,25.86,73,67.67-47.65-1.72-90.57-2.58-129.2-2.58a109.25,109.25,0,0,0-2.58,24.13c0,51.29,33.48,87.5,76,87.5,21.9,0,40.35-9.49,54.52-27.16ZM1153,194.54c-21,0-39.49,17.24-45.93,46.55l84.13-2.16C1185.65,210.05,1171.92,194.54,1153,194.54Z"/><path class="cls-1" d="M1681.85,360c-46.79,21.12-89.28,31.9-129.63,31.9-103.87,0-171.26-61.63-171.26-152.58,0-46.12,17.17-84.91,51.08-115.08,32.62-28.87,75.54-44.39,126.19-44.39,33.91,0,69.54,6,105.16,17.67-1.71,25.86-2.57,51.72-3,77.15H1654c-12.88-54.74-48.5-84-101.3-84-72.54,0-122.33,53-122.33,134.47,0,40.51,14.6,77.58,41.21,106.45,27,29.32,67.82,45.69,112.46,45.69,30,0,35.19-7.76,35.19-34.48V301.43c0-35.35-15-46.12-57.51-49.57V244.1c22.74.86,44.64,1.29,66.53,1.29S1672,245,1693,244.1v7.76c-29.19,3.88-32.62,15.09-32.62,48.27v52.15h21.46Z"/><path class="cls-1" d="M1744.06,165.66v-6c0-27.59-.43-44.4-11.16-53-10.3-8.19-24-12.5-42.06-13.36V85.49c25.32.43,50.65.43,76,.43,25.75,0,51.51,0,77.26-.43v7.76c-48.93,1.29-59.66,16.38-59.66,65.94V266.08c0,34.05,3,58.62,20.6,77.59,16.31,17.67,43.36,28.44,77.26,28.44,41.21,0,66.53-14.22,82.41-47.41,9.45-20.26,10.74-56.89,10.74-110.77,0-50.43-.86-82.75-11.59-98.7-10.3-15.08-27.9-21.55-54.52-22V85.49c21.47.43,42.5.43,64,.43s42.92,0,64-.43v7.76h-.86c-42.93,0-43.78,37.07-44.64,118.1-.43,50,1.29,89.21-12,119.81-17.17,40.09-57.52,61.64-117.61,61.64-48.07,0-82-13.36-100.44-38.36-16.74-23.28-17.6-49.57-17.6-84.05Z"/><path class="cls-1" d="M2053.68,378.58c50.65-3,55.8-19.4,55.8-65.52V158.33c0-46.12-5.15-62.06-55.8-65.08V85.49c26.18,0,51.94.43,77.69.43,25.33,0,50.65-.43,75.55-.43v7.76c-49.79,3-55.8,18.53-55.8,65.08V313.06c0,46.55,6,62.93,55.8,65.52v7.32c-25.76-.43-51.51-.86-76.84-.86-25.75,0-51.07.43-76.4.86Z"/><path class="cls-1" d="M2223.45,378.58c47.22-3.88,56.23-17.24,56.23-59.48V148.85c0-37.93-9.45-50.86-51.51-55.6V85.49c64-.43,105.16-1.72,122.76-1.72,127.91,0,200.45,60.34,200.45,153.44,0,90.51-69.1,150-191,150-31.76,0-77.69-.87-136.92-1.3Zm161-2.16c65.67,0,114.61-51.29,114.61-131.46,0-93.52-63.53-151.28-174.27-151.28h-3.87V307C2320.88,357.46,2330.76,376.42,2384.41,376.42Z"/><path class="cls-1" d="M2741.72,80.32c97.43,0,160.1,62.93,160.1,158.18,0,91.38-63.52,153-162.67,153-96.58,0-160.11-61.63-160.11-157.32C2579,141.09,2642.57,80.32,2741.72,80.32Zm1.72,298.26c63.53,0,107.73-52.15,107.73-136.63,0-37.5-9.87-72.41-26.61-97.84-22.75-34.48-50.65-51.29-87.56-51.29-62.24,0-106.88,52.15-106.88,135.33C2630.12,318.24,2678.62,378.58,2743.44,378.58Z"/><path class="cls-1" d="M2901.11,378.58c49.35-2.16,57.08-30.17,57.08-104.74V191.09c0-10.77.43-20.26.43-28.45,0-21.55-2.14-37.06-18-51.72-10.74-10.34-26.19-16.38-45.08-17.67V85.49c13.74,0,27.05.43,39.5.43s24.46-.43,35.62-.43l214.61,231V217c0-53.88-.42-87.93-13.73-104.74-9-11.2-24.89-17.24-48.07-19V85.49c21.46.43,42.49.43,62.24.43,20.17,0,39.91,0,58.37-.43v7.76h-3.43c-33.48,0-41.21,33.19-41.21,109.05v92.23c0,34.91.43,69.39,2.15,102.58H3199c-26.18-29.74-41.21-47-45.07-51.29L2972.36,152.3v85.34c0,60.77.43,99.13,10.73,115.94,7.72,12.93,24.47,19.83,51.94,25v7.32c-22.76-.43-45.07-.86-67.4-.86s-44.64.43-66.52.86Z"/><path class="cls-1" d="M384.57,5.23c-.89,1.2,1.56,4.54,5.48,7.47s7.81,4.33,8.7,3.13-1.56-4.54-5.48-7.47S385.45,4,384.57,5.23Z"/><polygon class="cls-1" points="197.15 126.33 197.15 126.33 191.4 127.63 186.45 129.45 182.01 131.53 178.09 133.87 174.96 136.73 172.09 139.85 169.74 142.96 167.66 146.6 166.09 150.5 164.78 154.4 164 158.56 163.48 162.71 163.22 167.39 162.96 171.81 163.22 176.49 163.48 181.17 164.26 190.78 165.57 200.14 166.87 209.24 167.66 218.07 167.91 222.23 168.17 226.39 167.91 230.03 167.66 233.67 167.13 237.04 166.34 240.16 165.05 242.76 163.48 245.36 163.48 245.36 162.17 244.58 160.6 243.54 159.04 241.47 157.21 239.12 156.43 237.3 155.65 235.48 155.12 233.4 154.6 231.32 154.08 228.72 153.82 225.87 153.82 222.75 153.82 219.37 153.82 219.37 150.68 219.89 149.12 220.41 147.82 220.93 146.78 221.46 145.73 222.23 144.94 223.27 144.42 224.05 143.38 226.39 142.85 228.72 142.6 231.32 143.12 234.19 143.64 237.04 144.69 239.9 145.99 242.76 147.3 245.88 149.12 248.48 150.95 251.34 152.78 253.68 154.87 255.76 154.87 255.76 161.91 253.16 167.91 250.29 170.52 249 172.61 247.44 174.7 245.88 176.53 244.32 178.09 242.76 179.66 240.94 180.7 239.39 181.74 237.57 182.53 235.75 183.05 233.93 184.09 230.03 184.36 226.13 184.09 221.71 183.84 217.29 183.05 212.36 181.49 201.96 180.7 196.24 180.17 190.27 180.17 190.27 179.92 188.45 179.4 183.25 179.13 175.45 179.4 171.03 179.66 166.09 180.17 160.89 181.22 155.7 182.53 150.24 184.36 145.05 186.71 139.85 188.01 137.51 189.58 135.17 191.15 132.83 192.97 130.49 195.06 128.41 197.15 126.33 197.15 126.33 197.15 126.33"/><polygon class="cls-1" points="239.17 260.18 239.17 260.18 239.17 256.54 239.43 253.16 240.47 246.66 241.77 240.42 243.6 234.97 247.26 224.57 249.08 219.63 250.65 214.96 251.69 210.01 251.95 207.68 251.95 205.34 251.95 203 251.69 200.4 251.44 197.81 250.65 195.2 249.6 192.6 248.56 189.74 246.99 186.89 245.17 184.03 243.07 180.91 240.72 177.79 237.85 174.41 234.46 170.78 234.46 170.78 227.42 176.49 219.84 182.21 210.98 188.45 210.98 188.45 210.71 179.35 210.98 169.99 211.5 159.08 211.75 153.62 212.54 148.42 213.59 143.49 214.63 139.07 216.19 135.17 216.98 133.62 218.02 132.31 219.07 131.27 220.11 130.23 221.41 129.71 222.72 129.71 222.72 129.71 223.76 130.76 225.07 131.79 226.63 132.83 228.46 133.87 230.29 134.65 232.38 135.17 234.72 135.42 236.81 135.69 239.17 135.42 241.51 134.91 243.86 133.87 246.47 132.57 248.82 130.76 251.16 128.41 253.52 125.3 255.61 121.91 255.61 121.91 253.78 122.69 251.95 123.48 250.12 123.73 248.31 124.26 244.64 124.26 241.26 123.99 237.6 122.95 234.21 121.66 230.8 120.09 227.42 118.28 227.42 118.28 223.5 119.83 220.11 121.66 216.72 123.73 213.59 126.08 210.98 128.67 208.37 131.53 206.28 134.91 204.2 138.29 202.62 142.19 201.06 146.34 200.01 151.02 199.23 155.7 198.45 160.89 198.19 166.62 198.19 172.59 198.45 178.82 198.45 178.82 200.28 205.6 200.8 219.63 201.32 233.4 201.32 239.9 201.32 246.14 200.8 252.12 200.28 257.32 199.49 262.25 198.45 266.41 197.15 269.79 196.36 271.09 195.58 272.39 195.58 272.39 192.19 270.3 189.31 268.49 186.45 267.19 184.09 266.15 182.01 265.37 179.92 264.86 178.09 264.59 176.53 264.59 174.7 264.86 173.39 265.37 170.52 266.41 164.53 269.27 164.53 269.27 167.66 270.3 170.52 271.35 172.87 272.91 174.96 274.47 178.35 277.58 179.92 278.88 181.49 280.19 183.05 281.23 184.61 281.74 186.71 282.01 189.05 281.48 191.66 280.7 194.54 278.88 198.19 276.55 202.36 273.17 202.36 273.17 203.93 271.61 205.5 270.05 206.8 268.49 208.1 266.68 210.19 262.77 211.75 258.61 212.8 254.19 213.59 249.78 214.11 245.1 214.11 240.42 214.11 236 213.85 231.58 213.32 223.27 212.28 216 211.75 210.79 211.75 210.79 211.23 195.46 211.23 195.46 212.54 194.17 213.85 192.6 215.67 191.56 217.24 190.53 219.07 189.74 220.89 189.49 222.72 189.74 224.55 190.27 226.12 191.56 227.95 193.38 229.25 195.99 230.8 199.36 231.87 203.52 232.89 208.72 233.68 214.96 234.21 222.23 234.21 222.23 234.46 227.17 234.46 232.1 233.95 240.16 233.42 246.92 232.38 252.9 231.87 257.83 231.33 262.77 231.33 265.37 231.59 267.71 231.87 270.3 232.38 273.17 232.38 273.17 233.95 279.15 234.72 282.01 235.77 284.34 236.81 286.42 238.13 288.24 239.17 289.8 240.72 291.1 242.03 292.14 243.6 292.66 245.17 292.92 246.73 292.92 248.56 292.4 250.39 291.62 252.48 290.32 254.57 288.5 254.57 288.5 256.91 286.42 257.95 284.87 258.48 284.34 258.48 283.56 258.48 283.05 258.21 282.52 257.44 281.74 256.12 281.23 252.21 279.67 250.12 278.62 247.77 277.58 245.69 276.02 243.6 273.95 241.77 271.61 240.98 270.05 240.21 268.49 239.68 266.68 239.43 264.86 239.17 262.51 239.17 260.18 239.17 260.18 239.17 260.18"/><polygon class="cls-1" points="295.28 200.92 294.75 200.92 294.75 200.92 290.06 197.28 287.44 194.95 285.1 192.35 282.48 189.74 280.14 186.89 278.05 183.77 276.22 180.65 274.67 177.53 273.61 174.41 272.84 171.29 272.84 168.17 273.09 166.62 273.35 165.06 273.88 163.75 274.67 162.2 275.71 160.63 276.75 159.34 278.05 158.03 279.61 156.74 279.61 156.74 283.27 158.56 286.93 161.16 290.57 164.28 294.24 167.91 297.62 172.07 299.2 174.41 300.5 176.75 301.8 179.35 302.84 181.95 303.88 184.54 304.67 187.41 304.67 187.41 305.46 185.85 306.24 184.29 307.01 181.17 307.29 177.79 307.29 174.41 306.5 171.29 305.46 167.91 303.88 164.53 301.8 161.41 299.45 158.3 297.11 155.18 294.24 152.32 291.11 149.72 287.97 147.13 284.57 144.78 281.19 142.7 277.8 140.88 277.8 140.88 274.67 145.31 272.05 149.46 269.7 153.36 267.87 157 266.04 160.63 264.75 164.02 263.43 167.39 262.66 170.52 262.13 173.63 261.61 176.49 261.34 179.09 261.34 181.68 261.61 184.03 261.87 186.36 262.38 188.71 263.17 190.78 264.75 194.42 266.83 197.81 268.92 200.92 271.26 203.52 273.88 205.6 275.97 207.68 279.61 210.54 279.61 210.54 283.02 213.65 285.89 216.78 288.23 220.15 290.32 223.27 291.88 226.65 293.45 230.03 294.49 233.4 295.28 236.78 295.79 239.9 295.79 243.02 295.79 245.88 295.54 248.74 295.02 251.34 294.24 253.68 293.45 255.76 292.4 257.58 291.11 259.14 289.79 260.43 288.23 261.21 286.66 261.47 285.1 261.47 283.27 260.95 281.44 260.18 279.61 258.61 277.8 256.79 275.97 254.19 274.14 251.08 272.31 247.18 270.47 242.76 268.66 237.82 267.09 231.85 265.53 225.35 265.53 225.35 264.49 228.99 263.7 232.89 263.43 237.04 263.43 241.47 263.96 245.88 264.75 250.29 265.79 254.72 267.09 258.87 268.66 262.77 270.47 266.15 272.56 269.27 274.67 271.87 275.71 272.65 277.01 273.69 278.05 274.21 279.35 274.73 280.65 274.98 281.97 274.98 283.27 274.73 284.57 274.21 284.57 274.21 286.93 272.91 289.53 271.09 292.67 268.75 295.79 265.89 298.92 262.51 302.06 258.61 304.93 254.19 307.55 249.51 308.59 246.92 309.38 244.32 310.15 241.72 310.68 238.86 310.94 236 310.94 233.15 310.68 230.28 310.42 227.17 309.63 224.05 308.59 220.93 307.29 217.55 305.72 214.43 303.63 211.06 301.29 207.68 298.41 204.3 295.28 200.92 295.28 200.92 295.28 200.92"/><path class="cls-1" d="M193,376.51c2.35-.11,3.88-.7,4.62-1.8.54-.85.65-3.31.65-7.39v-7.76c0-3.19-.07-5.18-.84-6.1-.55-.66-2.08-1.25-4.43-1.39v-.66c1.36,0,2.71,0,4,0,1.65,0,3.26,0,4.83-.07-.18,2.76-.26,4.59-.26,5.62v12.46c0,3,0,4.89.92,5.81.77.77,2.2,1.17,4.43,1.25v.62c-2.31,0-4.61-.07-7-.07s-4.64,0-7,.07Z"/><path class="cls-1" d="M210.75,377.28c5.89-2.94,9.59-6.54,11.2-11.39a10.43,10.43,0,0,1-5.31,1.58,7.25,7.25,0,0,1-7.57-7.65,8.46,8.46,0,0,1,8.89-8.75c5.53,0,8.89,3.46,8.89,9.19,0,7.72-5.52,14.41-15.73,17.79Zm12.15-17.13c0-5.11-2.05-8.08-5.09-8.08s-5.05,2.53-5.05,6.61c0,4.41,2.64,7.32,6.26,7.32a4.42,4.42,0,0,0,3.3-1.36A18.33,18.33,0,0,0,222.9,360.15Z"/><path class="cls-1" d="M228.21,376.69c8.16-7,12.41-12.42,12.41-17.09,0-3.45-1.79-5.44-4.65-5.44-2.05,0-4.1,1.14-6.08,3.46l-.55-.44c2.13-4.08,4.65-6,8.09-6,3.88,0,6.78,3.12,6.78,7.24,0,4.63-4,9.63-11.64,15.77l6.51-.08c2,0,3.3-.07,4-.7a14.23,14.23,0,0,0,2.63-3.6l.63.3-2.75,7.05c-2.09,0-4.25-.07-6.41-.07-2.81,0-5.74,0-8.74.15Z"/><path class="cls-1" d="M249.16,377.28c5.89-2.94,9.59-6.54,11.2-11.39a10.43,10.43,0,0,1-5.31,1.58,7.26,7.26,0,0,1-7.58-7.65c0-5.11,3.66-8.75,8.9-8.75,5.52,0,8.89,3.46,8.89,9.19,0,7.72-5.53,14.41-15.74,17.79Zm12.15-17.13c0-5.11-2.05-8.08-5.09-8.08s-5.05,2.53-5.05,6.61c0,4.41,2.63,7.32,6.26,7.32a4.38,4.38,0,0,0,3.29-1.36A18.36,18.36,0,0,0,261.31,360.15Z"/><rect class="cls-1" x="154.41" y="364.96" width="26.44" height="0.8"/><rect class="cls-1" x="279.11" y="364.96" width="26.44" height="0.8"/><path class="cls-1" d="M153,343.05c3.31-.23,3.56-1.23,3.56-4.34V328.56c0-3.12-.25-4.15-3.38-4.43v-.52c2.59,0,5,0,7.17,0,3.07,0,5.75,0,8-.06l-.43,4.66h-.43c-.11-3.26-1.65-3.88-5.46-3.88h-2.82v8.69h3.27c2.68,0,4-.83,4.07-2.95H167c-.09,1.63-.14,3.26-.14,4.92,0,.77,0,1.54,0,2.34h-.43c0-2.23-1.17-3.06-3.9-3.06h-3.36v4.26c0,3.23.51,4.15,4.3,4.49v.49c-1.85,0-3.65-.06-5.41-.06s-3.45,0-5.13.06Z"/><path class="cls-1" d="M180.74,323.27c6.46,0,10.61,4.17,10.61,10.49,0,6.06-4.21,10.15-10.78,10.15-6.41,0-10.62-4.09-10.62-10.44C170,327.3,174.16,323.27,180.74,323.27Zm.11,19.78c4.21,0,7.15-3.46,7.15-9.06a12,12,0,0,0-1.77-6.49,6.61,6.61,0,0,0-5.81-3.4c-4.12,0-7.09,3.46-7.09,9C173.33,339.05,176.55,343.05,180.85,343.05Z"/><path class="cls-1" d="M195,328.93v-.4c0-1.83,0-2.95-.74-3.52a4.66,4.66,0,0,0-2.79-.88v-.52c1.68,0,3.36,0,5,0s3.42,0,5.13,0v.52c-3.25.08-4,1.08-4,4.37v7.09c0,2.26.2,3.89,1.36,5.15a6.87,6.87,0,0,0,5.13,1.88c2.73,0,4.41-.94,5.47-3.14.62-1.35.71-3.78.71-7.35,0-3.34-.06-5.49-.77-6.55s-1.85-1.42-3.62-1.45v-.52c1.43,0,2.82,0,4.24,0s2.85,0,4.25,0v.52h-.06c-2.85,0-2.9,2.46-3,7.83,0,3.32.08,5.92-.8,8-1.14,2.65-3.81,4.08-7.8,4.08-3.19,0-5.44-.88-6.66-2.54s-1.17-3.29-1.17-5.57Z"/><path class="cls-1" d="M215.86,343.05c3.27-.14,3.79-2,3.79-6.95v-5.48c0-.72,0-1.35,0-1.89a4.06,4.06,0,0,0-1.19-3.43,4.62,4.62,0,0,0-3-1.17v-.52c.91,0,1.79,0,2.62,0s1.62,0,2.36,0l14.24,15.32v-6.6c0-3.57,0-5.83-.92-6.95a4.28,4.28,0,0,0-3.18-1.25v-.52c1.42,0,2.81,0,4.12,0s2.65,0,3.88,0v.52h-.23c-2.22,0-2.74,2.2-2.74,7.23v6.12c0,2.31,0,4.6.15,6.8h-.17l-3-3.4-12-12.84v5.66c0,4,0,6.58.71,7.69.51.86,1.62,1.32,3.44,1.66v.49c-1.51,0-3-.06-4.47-.06s-3,0-4.41.06Z"/><path class="cls-1" d="M240,343.05c3.13-.26,3.73-1.14,3.73-3.94v-11.3c0-2.51-.63-3.37-3.42-3.68v-.52c4.25,0,7-.11,8.15-.11,8.48,0,13.29,4,13.29,10.17,0,6-4.58,9.95-12.67,9.95-2.11,0-5.15-.05-9.08-.08Zm10.68-.14c4.35,0,7.6-3.4,7.6-8.72,0-6.2-4.22-10-11.56-10h-.26v14.15C246.46,341.65,247.12,342.91,250.68,342.91Z"/><path class="cls-1" d="M262.09,343.05c3.41-.43,3.76-1.26,3.76-4V328.13c0-2.8-.46-3.89-3.45-4v-.52c2.65,0,5.15,0,7.52,0,2.9,0,5.58,0,8-.06-.2,1.52-.32,3.06-.4,4.55h-.43c-.2-2.95-1.51-3.75-4.87-3.75h-3.73v8.24h2.88c2.82,0,4-.46,4.38-2.78h.46c-.09,1.6-.12,3.26-.12,5.06v1.66h-.42c-.2-2.14-1.43-2.69-4.27-2.69h-2.91V339c0,2.92.74,3.81,4.64,3.81,3.36,0,5.21-1.61,5.87-5.09l.45.05a20.93,20.93,0,0,1-1.08,5.86c-2.68,0-5.86-.08-9.62-.08-2.08,0-4.3,0-6.69,0Z"/><path class="cls-1" d="M280.72,343.05c3.13-.26,3.73-1.14,3.73-3.94v-11.3c0-2.51-.63-3.37-3.42-3.68v-.52c4.24,0,7-.11,8.14-.11,8.49,0,13.3,4,13.3,10.17,0,6-4.59,9.95-12.67,9.95-2.11,0-5.15-.05-9.08-.08Zm10.67-.14c4.36,0,7.6-3.4,7.6-8.72,0-6.2-4.21-10-11.55-10h-.26v14.15C287.18,341.65,287.83,342.91,291.39,342.91Z"/><path class="cls-1" d="M164.21,286.25c-.41-.38-.64-.6-.76-.73l-.42-.32c-1.09-.83-2.14-1.65-3.16-2.56L56.75,409.44l.08.08a5.67,5.67,0,1,0,8.93,6.61l103.87-127.2A10.45,10.45,0,0,1,164.21,286.25Z"/><path class="cls-1" d="M159.44,128.38a10.13,10.13,0,0,1,5.24-2.7L67.56,6.26,58.8,13.85l97.91,119.9A9.54,9.54,0,0,1,159.44,128.38Z"/><path class="cls-1" d="M295.18,129.18a9.32,9.32,0,0,1,2.7,5.16L395.94,14.25l-8.75-7.59-97.44,119.8A10.4,10.4,0,0,1,295.18,129.18Z"/><path class="cls-1" d="M397,409.52l.08-.08L294.36,283.14a9.48,9.48,0,0,1-.82,1.9,9.17,9.17,0,0,1-7.19,4.68,8.8,8.8,0,0,1-1.12.49L388.06,416.13a5.67,5.67,0,1,0,8.93-6.61Z"/><path class="cls-1" d="M158.68,80.21c4.86-2.43,7.91-5.4,9.24-9.4a8.55,8.55,0,0,1-4.38,1.3,6,6,0,0,1-6.25-6.31,7,7,0,0,1,7.34-7.22c4.56,0,7.34,2.85,7.34,7.58,0,6.37-4.56,11.9-13,14.69Zm10-14.14c0-4.21-1.69-6.67-4.2-6.67s-4.17,2.09-4.17,5.46c0,3.64,2.18,6,5.17,6a3.66,3.66,0,0,0,2.72-1.13A15,15,0,0,0,168.71,66.07Z"/><path class="cls-1" d="M174.27,69.53c0-7,2.78-10.92,7.1-10.92s7.1,3.91,7.1,10.92-2.78,10.92-7.1,10.92S174.27,76.54,174.27,69.53Zm7.1,10.07c2.54,0,3.93-3.39,3.93-10.07s-1.39-10.07-3.93-10.07-3.9,3.4-3.9,10.07S178.83,79.6,181.37,79.6Z"/><path class="cls-1" d="M202.53,79.57c2.84-.24,4-1.33,4-3.91V72.84a7.46,7.46,0,0,0-.82-3.28l-2.84-6.25c-1.09-2.43-2.18-3.61-4.5-3.82v-.55c1.3,0,2.66,0,4.08,0s2.9,0,4.44,0v.55c-1.3.06-2,.45-2,1.15a4.59,4.59,0,0,0,.52,1.76l3.26,7.22c2.6-4.49,4.08-7.25,4.08-8.58,0-.95-.82-1.55-2.24-1.55h-.12v-.55c1.39,0,2.72,0,4.05,0s2.6,0,3.87,0v.55h-.24c-3.08,0-4.11,2.24-6.29,6.28-1.11,2.09-1.84,3.46-2.11,4.13a4.92,4.92,0,0,0-.3,1.94v3.91c0,2.49,1.14,3.55,4.14,3.82v.52c-1.79,0-3.6-.06-5.44-.06s-3.66,0-5.53.06Z"/><path class="cls-1" d="M218.42,79.57c3.63-.45,4-1.33,4-4.21V63.74c0-3-.48-4.13-3.65-4.25v-.55c2.81,0,5.46,0,8,0,3.08,0,5.93,0,8.52-.06-.21,1.61-.33,3.25-.42,4.83h-.45c-.21-3.13-1.6-4-5.17-4h-4V68.5h3.05c3,0,4.26-.49,4.66-2.94h.48c-.09,1.7-.12,3.46-.12,5.37v1.76h-.45c-.21-2.28-1.51-2.86-4.54-2.86h-3.08v5.41c0,3.09.79,4,4.93,4,3.56,0,5.53-1.7,6.22-5.4l.49.06a23,23,0,0,1-1.15,6.22c-2.84-.06-6.23-.09-10.22-.09-2.2,0-4.56,0-7.1,0Z"/><path class="cls-1" d="M237.76,79.57a4.23,4.23,0,0,0,2.63-1.18c.73-.82,1.82-3.94,3.81-9.28l3.45-9.17-.13-.6a4.5,4.5,0,0,0,2.15-1.67l6.68,18.11c.93,2.52,1.69,3.7,4,3.79v.52c-1.48,0-3-.06-4.51-.06s-3,0-4.5.06v-.52c1.57-.12,2.42-.85,2.42-1.76a6.8,6.8,0,0,0-.45-2.06l-1.61-4.49h-7.16L244,73a17.7,17.7,0,0,0-1.15,4.64c0,1.31,1.12,1.88,3.45,1.94v.52c-1.55,0-3.06-.06-4.48-.06s-2.75,0-4,.06ZM251.18,70,248,61.55,245,70Z"/><path class="cls-1" d="M260.55,79.57c3.66-.24,3.84-1.48,3.84-5.15V64.25c0-2-.09-3.24-.76-3.82a5.69,5.69,0,0,0-2.72-.94v-.55c4.78,0,7.47-.12,8.07-.12,5.23,0,7.8,1.67,7.8,5.28,0,2.22-1.24,3.91-3.72,5,3.48,6.64,6.59,10.28,10.61,10.89l-.09.52c-2.57-.13-4.54-.16-6.05-.82s-2.45-2-3.68-3.83c-1.45-2.21-2.21-3.91-2.81-4.73-.46-.61-1.21-.79-2.36-.91L267.2,70v4.4c0,3.64.42,4.88,4.38,5.15v.52c-1.9,0-3.81-.06-5.65-.06s-3.63,0-5.38.06Zm13.14-15.08c0-3-2.29-4.91-6.49-5v10C271.43,69.26,273.69,67.44,273.69,64.49Z"/><path class="cls-1" d="M285,73.69c1.09,3.91,3.29,6,6.28,6a3.79,3.79,0,0,0,4.05-3.74c0-1.82-1-3.33-3.08-4.55l-2.42-1.42c-2.57-1.52-3.8-3.28-3.8-5.5,0-3.3,2.78-5.91,6.76-5.91a9.38,9.38,0,0,1,4.87,1.33c-.18,1.4-.27,2.95-.33,4.64h-.55c-.45-3.42-1.93-5.15-4.32-5.15a3.64,3.64,0,0,0-3.77,3.73A4.82,4.82,0,0,0,291.31,67l3.51,2.13c2.39,1.45,3.5,3.15,3.5,5.43,0,3.43-3.17,6.1-7.34,6.1a10.41,10.41,0,0,1-5.8-1.64,37.49,37.49,0,0,1-.72-5.25Z"/></g></g></svg>